<svg id="Layer_1" data-name="Layer 1" xmlns="http://www.w3.org/2000/svg" viewBox="0 0 600.32 600.32"><defs><style>.cls-1{fill:#4374ba;}.cls-2{fill:#ed2025;}.cls-3{fill:#030303;}.cls-4{fill:none;stroke:#fff;stroke-width:7.78px;}</style></defs><rect class="cls-1" x="92.13" y="203.06" width="431.56" height="431.56" transform="translate(-191.18 130.39) rotate(-34.62)"/><rect class="cls-2" x="68.59" y="192.64" width="452.4" height="452.4" transform="translate(-122.62 -7.26) rotate(-17.98)"/><rect class="cls-3" x="60.84" y="73.96" width="452.4" height="452.4"/><path class="cls-4" d="M168.12,394.32V390h15.26v6h-1.09ZM183.38,457v6H168.12v-4.36L182.29,457Zm-4.9-33.24c0-11.22,0-22.55-.33-33.78h10.46c-.33,11-.33,22.34-.33,33.78v3.82c0,12.85,0,24.19.33,35.41H178.15c.33-11,.33-22.34.33-33.78Zm4.9-1h10.79c13.4,0,19.17-4.25,19.17-14.27s-5.77-13.51-17-13.51h-13v-5h16.13c14.92,0,23.64,7.41,23.64,17.87,0,8.5-5.88,16-20.38,17.76v-1c17,1.42,24,9.05,24,18.42,0,9.91-8.18,19.94-28.77,19.94h-14.6v-5h12c14.17,0,21-5.34,21-14.93,0-10.14-6.64-15.26-21.9-15.26H183.38Z" transform="translate(-7.75 -118.68)"/><path class="cls-4" d="M232.73,394.32V390h30.51v4.36L249.08,396H246.9ZM270,457c12.53,0,18.85-7.09,18.85-26.59V390h5.45v43.26c0,22.88-11.11,31.38-25.83,31.38-15.79,0-26.47-8.82-26.47-29.09V423.74c0-11.22,0-22.55-.33-33.78h10.46c-.33,11-.33,22.34-.33,33.78v8.61C251.8,451.09,258.89,457,270,457Zm19.61-61-12-1.64V390h26.15v4.36l-12,1.64Z" transform="translate(-7.75 -118.68)"/><path class="cls-4" d="M361.85,390v3.82L316.74,463h-8.06v-3.81L353.9,390Zm-52.08,19.4.87-19.4h47.51v5.45h-43.7l6-5.45-4.14,19.4Zm54.48,34.21-.87,19.4H312.49v-5.45h47.07l-6,5.45,4.14-19.4Z" transform="translate(-7.75 -118.68)"/><path class="cls-4" d="M421.78,390v3.82L376.67,463H368.6v-3.81L413.82,390Zm-52.09,19.4.87-19.4h47.51v5.45H374.38l6-5.45-4.14,19.4Zm54.48,34.21L423.3,463H372.42v-5.45h47.07l-6,5.45,4.14-19.4Z" transform="translate(-7.75 -118.68)"/></svg>